<?xml version="1.0" standalone="no"?>
<!DOCTYPE svg PUBLIC "-//W3C//DTD SVG 20010904//EN"
 "http://www.w3.org/TR/2001/REC-SVG-20010904/DTD/svg10.dtd">
<svg version="1.0" xmlns="http://www.w3.org/2000/svg"
 width="170.000000pt" height="170.000000pt" viewBox="0 0 170.000000 170.000000"
 preserveAspectRatio="xMidYMid meet">
<metadata>
Created by potrace 1.11, written by Peter Selinger 2001-2013
</metadata>
<g transform="translate(0.000000,170.000000) scale(0.100000,-0.100000)"
fill="#000000" stroke="none">
<path d="M270 850 l0 -850 585 0 585 0 0 850 0 850 -585 0 -585 0 0 -850z
m1120 0 l0 -800 -535 0 -535 0 0 800 0 800 535 0 535 0 0 -800z"/>
<path d="M795 1463 c-40 -9 -111 -66 -135 -107 -35 -60 -37 -146 -4 -210 43
-85 116 -126 211 -122 69 4 109 23 157 76 125 138 25 363 -164 367 -25 1 -54
-1 -65 -4z m165 -81 c125 -101 67 -294 -91 -308 -65 -6 -108 14 -154 70 -26
33 -30 46 -30 101 0 56 4 68 31 102 45 55 87 74 154 68 40 -4 64 -13 90 -33z"/>
<path d="M420 855 l0 -85 115 0 115 0 0 -165 0 -165 -115 0 -115 0 0 -85 0
-85 435 0 435 0 0 85 0 85 -105 0 -105 0 0 165 0 165 105 0 105 0 0 85 0 85
-435 0 -435 0 0 -85z m830 0 l0 -45 -105 0 -105 0 0 -205 0 -205 105 0 105 0
0 -45 0 -45 -395 0 -395 0 0 45 0 45 115 0 115 0 0 205 0 205 -115 0 -115 0 0
45 0 45 395 0 395 0 0 -45z"/>
</g>
</svg>
